<svg width="24" height="24" viewBox="0 0 24 24" fill="none" xmlns="http://www.w3.org/2000/svg">
<rect width="24" height="24" fill="white" fill-opacity="0.01"/>
<path fill-rule="evenodd" clip-rule="evenodd" d="M8.29279 11.8901L12.8858 7.29707C12.9774 7.20362 13.0866 7.12924 13.2071 7.07826C13.3276 7.02727 13.457 7.00067 13.5879 7.00001C13.7187 6.99935 13.8484 7.02464 13.9694 7.07441C14.0904 7.12417 14.2004 7.19744 14.2929 7.28996C14.3854 7.38249 14.4587 7.49244 14.5085 7.61345C14.5582 7.73447 14.5835 7.86415 14.5828 7.995C14.5822 8.12585 14.5556 8.25527 14.5046 8.37578C14.4536 8.49628 14.3792 8.60549 14.2858 8.69707L10.3858 12.5971L14.2858 16.4971C14.4684 16.6834 14.57 16.9342 14.5687 17.195C14.5674 17.4558 14.4632 17.7056 14.2788 17.89C14.0943 18.0745 13.8445 18.1787 13.5837 18.18C13.3229 18.1813 13.0721 18.0796 12.8858 17.8971L8.29279 13.3051C8.10532 13.1175 8 12.8632 8 12.5981C8 12.3329 8.10532 12.0786 8.29279 11.8911V11.8901Z" fill="#42526E"/>
</svg>
