<svg width="24" height="24" viewBox="0 0 24 24" fill="none" xmlns="http://www.w3.org/2000/svg">
<rect width="24" height="24" fill="white" fill-opacity="0.01"/>
<path fill-rule="evenodd" clip-rule="evenodd" d="M13.1099 9.69635L17.7029 14.2894C17.7964 14.3809 17.8708 14.4901 17.9217 14.6106C17.9727 14.7312 17.9993 14.8606 18 14.9914C18.0006 15.1223 17.9754 15.252 17.9256 15.373C17.8758 15.494 17.8026 15.6039 17.71 15.6965C17.6175 15.789 17.5076 15.8622 17.3865 15.912C17.2655 15.9618 17.1358 15.9871 17.005 15.9864C16.8742 15.9857 16.7447 15.9592 16.6242 15.9082C16.5037 15.8572 16.3945 15.7828 16.3029 15.6894L12.4029 11.7894L8.50293 15.6894C8.31664 15.8719 8.06583 15.9736 7.805 15.9723C7.54417 15.9709 7.2944 15.8668 7.10996 15.6823C6.92553 15.4979 6.82133 15.2481 6.82001 14.9873C6.8187 14.7265 6.92036 14.4756 7.10293 14.2894L11.6949 9.69635C11.8825 9.50888 12.1368 9.40356 12.4019 9.40356C12.6671 9.40356 12.9214 9.50888 13.1089 9.69635L13.1099 9.69635Z" fill="#42526E"/>
</svg>
