<svg width="24" height="24" viewBox="0 0 24 24" fill="none" xmlns="http://www.w3.org/2000/svg">
<rect width="24" height="24" fill="white" fill-opacity="0.01"/>
<path fill-rule="evenodd" clip-rule="evenodd" d="M13.1099 15.7072L17.7029 11.1142C17.7964 11.0226 17.8708 10.9134 17.9217 10.7929C17.9727 10.6724 17.9993 10.543 18 10.4121C18.0006 10.2813 17.9754 10.1516 17.9256 10.0306C17.8758 9.90958 17.8026 9.79963 17.71 9.70711C17.6175 9.61458 17.5076 9.54132 17.3865 9.49155C17.2655 9.44178 17.1358 9.41649 17.005 9.41716C16.8742 9.41782 16.7447 9.44441 16.6242 9.4954C16.5037 9.54639 16.3945 9.62076 16.3029 9.71421L12.4029 13.6142L8.50293 9.71421C8.31664 9.53165 8.06583 9.42998 7.805 9.4313C7.54417 9.43262 7.2944 9.53681 7.10996 9.72125C6.92553 9.90569 6.82133 10.1555 6.82001 10.4163C6.8187 10.6771 6.92036 10.9279 7.10293 11.1142L11.6949 15.7072C11.8825 15.8947 12.1368 16 12.4019 16C12.6671 16 12.9214 15.8947 13.1089 15.7072L13.1099 15.7072Z" fill="#42526E"/>
</svg>
