<svg width="24" height="24" viewBox="0 0 24 24" fill="none" xmlns="http://www.w3.org/2000/svg">
<rect width="24" height="24" fill="white" fill-opacity="0.01"/>
<path fill-rule="evenodd" clip-rule="evenodd" d="M15.2759 11.9949C15.4634 12.1825 15.5687 12.4368 15.5687 12.7019C15.5687 12.9671 15.4634 13.2214 15.2759 13.4089L10.6829 18.0019C10.4966 18.1845 10.2458 18.2862 9.985 18.2849C9.72417 18.2835 9.4744 18.1793 9.28996 17.9949C9.10553 17.8105 9.00133 17.5607 9.00001 17.2999C8.9987 17.039 9.10036 16.7882 9.28293 16.6019L13.1829 12.7019L9.28293 8.80195C9.10036 8.61566 8.9987 8.36485 9.00001 8.10402C9.00133 7.84319 9.10553 7.59342 9.28996 7.40898C9.4744 7.22455 9.72417 7.12035 9.985 7.11903C10.2458 7.11771 10.4966 7.21938 10.6829 7.40195L15.2759 11.9949Z" fill="#42526E"/>
</svg>
