<svg width="24" height="24" viewBox="0 0 24 24" fill="none" xmlns="http://www.w3.org/2000/svg">
<rect width="24" height="24" fill="white" fill-opacity="0.01"/>
<path d="M19.005 19C19.002 19 19 19.002 19 19.002L19.005 19ZM5 19.006C5 19.002 4.998 19 4.995 19H5V19.006ZM19 19V13H21V19.002C21.0003 19.2642 20.9489 19.5239 20.8487 19.7662C20.7486 20.0086 20.6017 20.2288 20.4164 20.4143C20.2312 20.5999 20.0112 20.7471 19.769 20.8476C19.5268 20.9481 19.2672 20.9999 19.005 21H4.995C4.46615 20.9998 3.95902 20.7896 3.58497 20.4158C3.21092 20.0419 3.00053 19.5349 3 19.006V4.99402C3 3.89302 3.896 3.00002 4.997 3.00002H11V5.00002H5V19H19ZM5 19.006C5 19.002 4.998 19 4.995 19H5V19.006ZM11 5.00002H5V19H19V13H21V19.002C21.0003 19.2642 20.9489 19.5239 20.8487 19.7662C20.7486 20.0086 20.6017 20.2288 20.4164 20.4143C20.2312 20.5999 20.0112 20.7471 19.769 20.8476C19.5268 20.9481 19.2672 20.9999 19.005 21H4.995C4.46615 20.9998 3.95902 20.7896 3.58497 20.4158C3.21092 20.0419 3.00053 19.5349 3 19.006V4.99402C3 3.89302 3.896 3.00002 4.997 3.00002H11V5.00002ZM19 5.00002V8.00002C19 8.26524 19.1054 8.51959 19.2929 8.70713C19.4804 8.89466 19.7348 9.00002 20 9.00002C20.2652 9.00002 20.5196 8.89466 20.7071 8.70713C20.8946 8.51959 21 8.26524 21 8.00002V4.00002C21 3.7348 20.8946 3.48045 20.7071 3.29291C20.5196 3.10538 20.2652 3.00002 20 3.00002H16C15.7348 3.00002 15.4804 3.10538 15.2929 3.29291C15.1054 3.48045 15 3.7348 15 4.00002C15 4.26524 15.1054 4.51959 15.2929 4.70713C15.4804 4.89466 15.7348 5.00002 16 5.00002H19Z" fill="#42526E"/>
<path d="M12.707 12.707L20.707 4.70702C20.8025 4.61477 20.8787 4.50443 20.9311 4.38242C20.9835 4.26042 21.0111 4.1292 21.0123 3.99642C21.0134 3.86364 20.9881 3.73196 20.9378 3.60907C20.8875 3.48617 20.8133 3.37452 20.7194 3.28063C20.6255 3.18673 20.5138 3.11248 20.391 3.0622C20.2681 3.01192 20.1364 2.98662 20.0036 2.98777C19.8708 2.98892 19.7396 3.01651 19.6176 3.06892C19.4956 3.12133 19.3852 3.19751 19.293 3.29302L11.293 11.293C11.1108 11.4816 11.01 11.7342 11.0123 11.9964C11.0146 12.2586 11.1198 12.5094 11.3052 12.6948C11.4906 12.8802 11.7414 12.9854 12.0036 12.9877C12.2658 12.99 12.5184 12.8892 12.707 12.707Z" fill="#42526E"/>
</svg>
