<svg width="24" height="24" viewBox="0 0 24 24" fill="none" xmlns="http://www.w3.org/2000/svg">
<path d="M20.5 6L4 6.00001" stroke="#557CC4" stroke-width="1.5" stroke-linecap="round" stroke-linejoin="round"/>
<path d="M10.0005 10.5V16.5" stroke="#557CC4" stroke-width="1.5" stroke-linecap="round" stroke-linejoin="round"/>
<path d="M14.5005 10.5V16.5" stroke="#557CC4" stroke-width="1.5" stroke-linecap="round" stroke-linejoin="round"/>
<path d="M19.0005 6V20.25C19.0005 20.4489 18.9215 20.6397 18.7808 20.7803C18.6402 20.921 18.4494 21 18.2505 21H6.25049C6.05158 21 5.86081 20.921 5.72016 20.7803C5.57951 20.6397 5.50049 20.4489 5.50049 20.25V6" stroke="#557CC4" stroke-width="1.5" stroke-linecap="round" stroke-linejoin="round"/>
<path d="M16.0005 6V4.5C16.0005 4.10218 15.8425 3.72064 15.5611 3.43934C15.2798 3.15804 14.8983 3 14.5005 3H10.0005C9.60266 3 9.22113 3.15804 8.93983 3.43934C8.65852 3.72064 8.50049 4.10218 8.50049 4.5V6" stroke="#557CC4" stroke-width="1.5" stroke-linecap="round" stroke-linejoin="round"/>
</svg>
